<?xml version="1.0" encoding="utf-8"?>
<!-- Generator: Adobe Illustrator 18.1.1, SVG Export Plug-In . SVG Version: 6.00 Build 0)  -->
<svg version="1.1" id="Layer_1" xmlns="http://www.w3.org/2000/svg" xmlns:xlink="http://www.w3.org/1999/xlink" x="0px" y="0px"
	 viewBox="0 0 5.8 12.3" enable-background="new 0 0 5.8 12.3" xml:space="preserve">
<g>
	<g>
		<path d="M-13.8-96.8c0.6,3.6,1.7,7.1,3.1,10.4c0.1,0.3,0.3-1.6,0.3-1.7c0-0.9,0.2-2.2-0.2-3.1c-1.3-3.2-2.3-6.5-2.9-9.9
			c-0.2-1-0.4,0.8-0.4,0.9C-14-99.1-14-98-13.8-96.8L-13.8-96.8z"/>
	</g>
</g>
<g>
	<g>
		<path d="M132.4-143.3c1.7,2.5,3.6,4.8,5.7,7c1.8,1.9,5.3,2,7.1,0c1.9-2,2-5.1,0-7.1c-0.9-0.9-1.7-1.8-2.5-2.7
			c-0.2-0.2-0.4-0.4-0.5-0.7c-0.1-0.1-0.6-0.8-0.3-0.3c0.3,0.4-0.2-0.3-0.3-0.3c-0.2-0.3-0.4-0.6-0.6-0.9c-1.5-2.1-4.4-3.3-6.8-1.8
			C132.1-148.8,130.8-145.6,132.4-143.3L132.4-143.3z"/>
	</g>
</g>
<g>
	<g>
		<path d="M-8.8-96.8c0.6,3.6,1.7,7.1,3.1,10.4c0.1,0.3,0.3-1.6,0.3-1.7c0-0.9,0.2-2.2-0.2-3.1c-1.3-3.2-2.3-6.5-2.9-9.9
			c-0.2-1-0.4,0.8-0.4,0.9C-9-99.1-9-98-8.8-96.8L-8.8-96.8z"/>
	</g>
</g>
<line fill="none" stroke="#000000" stroke-miterlimit="10" x1="3" y1="1.3" x2="3" y2="12.3"/>
</svg>
