<?xml version="1.0" encoding="utf-8"?>
<!-- Generator: Adobe Illustrator 18.1.1, SVG Export Plug-In . SVG Version: 6.00 Build 0)  -->
<svg version="1.1" id="Layer_1" xmlns="http://www.w3.org/2000/svg" xmlns:xlink="http://www.w3.org/1999/xlink" x="0px" y="0px"
	 viewBox="0 0 576.1 79" enable-background="new 0 0 576.1 79" xml:space="preserve">
<g>
	<g>
		<g>
			<path fill-rule="evenodd" clip-rule="evenodd" fill="#FD6D6D" d="M532.9,10.9c-0.1,0.3-0.6,0.2-1,0.2
				C532,10.5,532.6,10.5,532.9,10.9z"/>
			<path fill-rule="evenodd" clip-rule="evenodd" fill="#FD6D6D" d="M531.2,13.5l0.7,0l0,0.7c-0.3,0-0.4,0-0.5,0.2
				C531.1,14.4,531.2,13.8,531.2,13.5z"/>
			<path fill-rule="evenodd" clip-rule="evenodd" fill="#FD6D6D" d="M486.3,51.6c-0.1,0.3-0.6,0.2-0.9,0.3
				C485.4,51.4,486,51.3,486.3,51.6z"/>
			<path fill-rule="evenodd" clip-rule="evenodd" fill="#FD6D6D" d="M493.2,52.6c-0.3-0.3-1.4-0.4-1.4,0.3c0.5,0.4,1.5,0.1,2.3,0.2
				c0.5,0,0.3,0.6,0.9,0.5c-0.1-0.5,0.8-0.1,1.1-0.3c1.1,0.4,2.7,0.6,4.1,0.4c1-0.1,2.2-0.5,2.5-1c-0.7-0.3-0.5,0-1.4,0
				c-1.2-1.7-4.2-0.8-5.8-0.8c-1.3,0-2.9-0.6-4.1,0.1C492,52.3,493.3,51.7,493.2,52.6z M500.6,52.4c0,0.7-1.1,0.4-1.8,0.5
				C498.9,52.3,500,51.9,500.6,52.4z"/>
			<path fill-rule="evenodd" clip-rule="evenodd" fill="#FD6D6D" d="M492.3,53.8c0.3-0.5,1.8-0.3,1.6,0.4c-0.7-0.2-0.7-0.2-1.4,0
				C492.6,54,492.5,53.8,492.3,53.8z"/>
			<path fill-rule="evenodd" clip-rule="evenodd" fill="#FD6D6D" d="M530.2,11.3c-2.2-0.2-3.1,0.9-5.3,0.7c-0.5-0.1-0.3,0.5-0.7,0.5
				c-2.5,0.5-6.4,0.7-8.9,0.5c-0.7,0.3-1.6,0.5-2.4,0.7c-0.5,0.3-1-0.2-1.4-0.2c-0.4,0-0.9,0.5-1.4,0.5c-0.5,0-1-0.3-1.4-0.2
				c-1.2,0.2-2.4,0.7-3.6,0.8c-0.7,0.1-1.5-0.2-2.1-0.2c-0.8,0-1.5,0.4-2.4,0.5c-1.7,0.2-3.3,0.3-5,0.6c-1.4,0.3-2.5,0.5-4,0.8
				c-1,0.2-2.4,0.1-4,0.4c-0.5,0.1-0.8,0.4-1.4,0.5c-2.1,0.6-4.7-0.1-6.6,1.2c-2.2,0.3-4.5,0.5-6.7,0.7c-2.2,0.2-4.5,0.3-6.8,0.2
				c-0.6,0.3-1.1,0.6-2.1,0.6c-0.8,0.4-0.2-0.8-0.7-0.7c-0.9-0.2-2.3,0.2-2.4-0.8c0.8-0.6,2.7-0.3,3-1.4c3.5-0.8,6.9-0.9,10.4-1.3
				c1.3-0.1,2.5-0.6,3.8-0.9c0.7-0.1,1.4-0.2,2.1-0.3c0.6-0.1,1.1-0.5,1.6-0.5c0.5-0.1,0.6,0.2,1,0.2c0.9,0,3.1-0.5,3.8-0.6
				c1.6-0.4,2.9-0.7,4.7-1.1c1-0.2,2.1-0.6,3.1-0.8c1-0.2,2,0,3.1-0.1c2.7-0.2,5.6-0.6,8.8-0.9c0.4,0,0.9-0.2,1.4-0.3
				c0.4,0,1,0.3,1.4,0.2c0.7-0.1,1.4-0.5,2.2-0.5c1.6-0.1,3.4-0.2,5-0.3c0.3,0,0.8,0.3,1.2,0.2c0.6,0,2.3-0.4,3.4-0.5
				c0.4,0,0.7,0.3,1.2,0.2c0.8,0,1.4-0.3,2.4,0c0.2,0,0.7,0,0.7,0c0.2,0,0.3-0.3,0.5-0.2c0.1,0,0.6,0.7,1.2,0.7
				C528.6,10.5,530,9.8,530.2,11.3z"/>
			<path fill-rule="evenodd" clip-rule="evenodd" fill="#FD6D6D" d="M422.7,21.9c-1.1-0.2-1.9-0.2-2.6-0.1c-0.4,0.1-0.8-0.2-1-0.2
				c-2-0.1-5,0.1-6.5,0.5c-2.5,0.6-5.1,0.5-7.7,0.8c-1.3,0.1-3,0.3-3.9,0.5c-0.4,0.1-0.7-0.2-1-0.2c-1,0.1-2.3,0.3-3.5,0.5
				c-1.4,0.2-2.7,0.3-3.5,0.5c-0.2,0.1-0.2-0.2-0.3-0.2c-1.4,0-1.8,0.5-2.8,0.7c0,0-0.1-0.1-0.2-0.1c-0.1,0-0.3-0.1-0.5-0.1
				c-0.4,0-0.7,0.3-0.9,0.3c-1.5,0.2-3,0.1-4.4,0.3c-1.1,0.2-2.3,0.8-3.4,1c-0.7,0.1-1-0.2-1.2-0.1c-0.1,0-0.2,0.3-0.2,0.3
				c-2.1,0.2-4.6,0.4-6,0.5c-0.3,0-0.5,0.2-0.7,0.3c-1.2,0.3-2.1,0.4-3.5,0.5c-1.4,0.1-3.2,0.6-4.8,0.8c-0.5,0.1-0.9,0-1.4,0.1
				c-4,0.6-10.2,1-14.8,1.8c-4.7,0.8-9.1,1.7-13.5,2.3c-2.5,0.4-4.8,0.9-6.9,1.2c-2.9,0.4-5.8,0.3-8.8,0.7c-0.9,0.1-1.8,0.5-2.7,0.6
				c-3.3,0.6-5.4,0.9-8,1.1c-4.1,0.3-8.2,0.4-12.4,0.5c-7.9,0.2-15.9,0.5-23.9,0.4c-5.8-0.1-11.7-0.4-17.3-0.1c-5.3,0.2-12,0-18.2,0
				c-4.1,0-8.1-0.2-12,0c-1.4,0-2.6,0.3-3.9,0.4c-5.6,0.1-11.3-0.3-16.7-0.3c-1.8,0-3.6,0.3-5.4,0.3c-1.8,0-3.6-0.4-5.3-0.4
				c-1.9-0.1-3.7,0.1-5.6,0c-2.6,0-5.4,0.1-7.2,0.2c-1.5,0.1-2.7-0.1-3.9-0.2c-2.3-0.1-4.7,0.2-7,0.1c-0.7,0-1.3-0.4-2-0.4
				c-0.6,0-1.3,0.3-2,0.3c0,0-0.5-0.3-0.8-0.3c-1.9,0-3.7-0.3-5.4-0.4c-0.8,0-1.4,0-2.2-0.1c-0.8-0.1-1.8-0.3-1.9-0.3
				c-0.8-0.1-1.5,0.2-2.2,0.1c-0.4-0.1-0.6-0.3-0.8-0.4c-0.3-0.1-0.8,0.1-1.1,0c-2.3-0.4-4.8-1.1-7.3-1.5c-0.6-0.1-1.2,0.1-1.8,0
				c-0.8-0.1-1.4-0.5-2.2-0.6c-1.4-0.3-2.7-0.4-4-0.7c-2.7-0.6-5.4-1.1-8.1-1.8c-5.3-1.3-10.7-2.7-16-3.7c-4.8-0.5-9.4-1.5-14-2.3
				c-0.7-0.1-1.2-0.4-1.8-0.5c-0.4-0.1-1,0.2-1.5,0.1c-1.2-0.2-2.5-0.6-3.7-0.7c-1.1-0.1-2.3-0.1-3.4-0.1c-0.5,0-1.2-0.2-1.7-0.2
				c-0.1,0-0.4,0.3-0.6,0.4c-0.4,0-0.8-0.3-1.1-0.3c-4.4-0.2-9-0.6-13.4-1.1c-4.5-0.5-9-0.7-13.1-0.8c-2.1,0.3-4.4,0.1-6.6,0.2
				c-0.8,0-1.6,0.2-2.4,0.1c-1.2-0.1-2.5-0.4-3.7-0.5c-1.2-0.1-2.3,0.1-3.5,0.1c-7.4-0.3-15.1-2.1-21.4-1.1c-1,0.2-0.9-0.8-1.6-1
				c-0.6,0.7-1.6-0.3-2.1,0.2c-0.8,0.4-1.1,1.4-1.8,1.9c0.4,0.8-0.2,1.3,0.5,1.7c-0.2,1.1,0.3,1.4,0.2,2.4c1.4,0.2,1.8,1.4,3.3,1.5
				c0.8-1.4,1.6-0.1,2.2,0c0.4,0.1,0.8,0,1.3,0c1.8,0.2,3.7-0.3,5.6-0.3c1.8,0.1,3.8,0.3,5.6,0.6c0.3,0.1,0.7,0.5,1.1,0.6
				c0.4,0.1,0.9-0.2,1.4-0.1c1,0.2,1.9,0.6,2.8,0.8c0.3,0,0.5-0.2,0.7-0.2c0.3,0,0.5,0.3,0.6,0.3c1.3,0.1,2.4,0.1,3.1,0.1
				c1.2,0,2.6,0,3.9,0c1.4,0,2.7,0,3.8,0.1c0.4,0,0.7,0.4,0.9,0.4c0.5,0,1-0.3,1.4-0.3c0.7,0,1.3,0.3,2,0.3c2.2,0.3,4.4,0.4,6.6,0.4
				c1.1,0,2.2-0.2,3.3-0.1c0.4,0,0.7,0.4,1.1,0.5c0.3,0.1,0.9,0,1.2,0c0.8,0.1,0.9-0.2,1.4,0.1c0.3,0.1,0.6-0.1,0.7-0.1
				c1.6,0.1,2.8,0.3,3.7,0.1c1.2-0.3,2.8,0,4.2,0.2c0.6-0.1,1.3-0.3,2-0.3c0.4,0,0.7,0.2,1.1,0.3c0.4,0,0.6-0.3,1-0.2
				c0.7,0,1.5,0.3,2.3,0.3c0.8,0.1,1.6,0,2.4,0.1c1.2,0.2,2.3,0.5,3.1,0.8c0.3,0.1,0.8,0,1.2,0.1c0.7,0.2,1.3,0.6,2.2,0.8
				c0.8,0.2,1.6,0.1,2.3,0.4c1.4,0.4,2.7,1.3,4.2,1.4c0.7,0.9,2,0.8,3.1,1.1c1,0.3,2.1,0.8,3,1.1c0.8,0.3,1.7,0.7,2.6,1
				c1.1,0.4,2.6,0.5,3.4,1.5c0.6-0.3,1,0.5,1.7,0c1.1,0.6,2.3,0.9,3.3,1.3c0.1,0,0.4-0.3,0.7,0c0.1,0.1,0,0.5,0.3,0.6
				c0,0,0.4-0.3,0.6-0.3c0.4,0.1,0.5,0.4,0.5,0.7c-1.3-0.1-2.6-0.3-4-0.5c-0.4,0-0.7,0.3-0.8,0.2c-0.3,0-0.3-0.4-0.8-0.5
				c-0.7-0.1-1.4-0.1-2.1-0.1c-5.6-0.7-11.4-1.7-16.7-2.1c-1.4-0.1-2.8-0.3-4.2-0.4c-0.6,0-1.3,0.1-1.9,0c-0.9-0.1-1.6-0.6-2.4-0.6
				c-0.4,0-0.8,0.2-1.2,0.2c-0.4,0-0.9-0.1-1.4-0.1c-2.2-0.1-5.4-0.6-8.4-1c-0.4,0.2-0.4,0-0.7-0.2c-0.4-0.1-0.5-0.1-0.9-0.2
				c-2.5-0.5-4.5-0.8-7.3-1.3c-1.7-0.3-3.4-0.6-5-0.9c-1.7-0.3-3.3-0.5-4.9-0.7c-1.5-0.2-3-0.2-4.6-0.2c-1.5,0-3.1-0.1-4.6-0.2
				c-0.4,0-0.5-0.3-0.8-0.3c-0.4-0.1-0.8,0.1-1.1,0.1c-5.8-0.2-11.4-1-16-1.7c-0.7-0.1-1.4-0.2-2.2-0.3c-0.3-0.1-0.5-0.4-0.9-0.5
				c-0.4-0.1-1,0.1-1.3,0c-1.3-0.4-2.5-1.4-3.9-1.3c-0.1,0.7-0.9,0.7-1.3,1c-0.2,0.1-0.7,0.9-0.2,1c-0.2,0.4-0.5,0.7-0.7,1.2
				c-0.7,0.8,0.2,2,0,3.1c-0.6,1.1-0.4,2.1-0.4,3.1c0,1-0.2,1,0,1.7c0.1,0.2,0,0.5,0,0.5c0.3,0.9,0.9,1.3,1.4,1.9
				c0.5,0.6,1.1,1.4,1.8,1.7c2-0.4,4,0.1,5.5,0.4c0.4,0.1,1,0.2,1.4,0.3c1,0.3,1.5,0.9,2.4,0.9c0.6,0,0.8,0,1-0.2
				c0.1,0,0.1-0.4,0.2-0.5c0.6-0.2,1.2-0.3,1.7-0.4c2.4-0.4,4.6,0.6,6.9,0c0.6,0.9,2.2,0.9,3.2,1.4c0.8,0.2,0.8-0.9,1.6-0.8
				c0.7-0.1,1.4-0.1,2-0.4c1.3,0.4,2.7,0.4,4.1,0.4c1.4,0,2.9,0.1,4.2,0.4c1.2,0.3,3.1,0.3,4.4,0.8c1.2,0.4,2.2,1.5,3.4,1.6
				c0.7,0.1,1.5-0.5,1.8-0.4c0.6,0.3,1.5-0.1,2.2,0c0.3,0,0.7,0.4,1,0.5c1.2,0.2,2.5,0.4,3.9,0.6c2.6,0.5,5.4,0.4,7.5,1.8
				c1.4,1,2.8,0.2,4.2,0.3c0.9,0.1,2,0.4,3.1,0.6c2.3,0.4,4.1,1.1,6,1.7c1,0.3,2,0.2,2.9,0.6c1,0.4,1.9,1.2,2.8,1.6
				c0.4,0.2,1,0.6,1.4,0.7c0.4,0.1,1-0.2,1.4-0.1c0.5,0.1,0.9,0.5,1.4,0.7c0.6,0.1,1.2,0.1,1.8,0.3c1,0.3,1.9,0.9,3,1.2
				c0.5,0.1,1-0.1,1.4-0.1c0.6,0.1,1.1,0.6,1.7,0.8c1,0.4,1.9,1,2.9,1.4c0.5,0.2,1.2,0.3,1.7,0.6c0.5,0.2,0.9,0.8,1.4,0.9
				c0.5,0.2,1.2,0.2,1.9,0.3c0.6,0.2,1.4,0.5,2,0.6c1.4,0.3,2.8,0.4,4.1,0.8c0.6,0.1,1,0.5,1.6,0.7c0.6,0.2,1.4,0.2,2,0.3
				c1.4,0.4,2.8,1,4.1,1.2c1,0.2,2.4-0.2,3-0.2c0.4,0,0.9,0.5,0.9,0.5c1.7,0.2,3.1-0.1,4.6,0.2c0.3,0,0.4,0.3,0.5,0.4
				c0.3,0.1,0.4-0.2,0.6-0.1c1.3,0.3,2.2,0.6,2.6,0.6c0.6,0,1.1,0,1.6,0.1c3.2,0.4,6.6,0.7,9.8,0.9c3.1,0.2,6.2,0.5,9.3,0.7
				c3.8,0.3,8.7,0.3,11.5,0.4c0.1,0,0.3,0.3,0.7,0.3c0.8,0,0.8-0.4,1-0.4c0.4-0.1,1,0.3,1.4,0.3c0.6,0,1.1-0.2,1.4-0.2
				c0.3,0,0.3,0.3,0.7,0.3c0.4,0,0.7-0.2,1.2-0.2c1.2-0.1,2.4-0.4,3.8-0.3c1,0,1.8,0.2,2.8,0.6c0.8-0.2,1.5-0.7,2.3-0.2
				c0.7-0.3,1.6-0.6,2.3-0.2c1.8,0.3,3.8-0.1,5.6,0c2.7,0.1,5.4,0.3,8.2,0.3c3.7,0,9-0.3,11.5,0.1c0.2,0,0.3-0.2,0.5-0.2
				c3.9-0.3,7.5,0.4,10.4,0.5c0.1,0,2.1-0.2,2.1-0.2c0,0,0.2,0.2,0.5,0.2c1.7,0.2,2.8-0.1,4-0.4c0.2,0.7,0.3,0.3,0.9,0.3
				c6.9-0.3,13.5-0.3,20.4-0.1c5,0.2,9.9,0,15.7,0.1c1.2,0,2.1-0.3,2.8-0.3c0.8,0,1.8,0.5,2.6,0.4c1,0,2.1-0.5,3.1-0.5
				c1-0.1,2,0.1,3.1,0.2c1.1,0,2.4,0.2,3.6,0.2c1.1,0,2-0.3,3.1-0.4c4.7-0.1,9.4,0.4,14.2-0.1c0.2,0.8,1,0.2,1.4,0.2
				c1.9,0,4-0.1,5.9-0.1c1-1,2.3-0.6,3.5-0.7c9.6-0.9,21.4-1.3,30.1-1.8c0.9-0.1,2.2-0.4,2.8-0.4c0.9-0.1,1.4,0.4,2.1,0.3
				c1.1-0.1,2.3-0.8,3.3,0c2.6-0.8,5.1,0.1,7-1c2.3,0.5,4.6-0.3,7-0.5c1.1-0.1,2.4,0.1,3.5,0c2.9-0.3,6.8-1,8.6-1.1
				c0.5,0,1.3,0.3,1.9,0.1c0.3-0.1,0.4-0.5,0.7-0.5c0,0,0.4,0.2,0.7,0.2c0.4,0,0.8-0.3,0.9-0.3c0.7-0.1,1.3,0.2,1.9,0.1
				c1.2-0.1,2.3-0.6,3.5-0.7c1.3-0.2,2.7-0.3,3.9-0.5c2.7-0.4,5-0.9,7.2-1.3c1.5-0.3,3.6-0.3,4.4-0.3c0.2,0,0.2-0.3,0.2-0.3
				c2.6-0.5,4.7-0.8,6.7-1c0,0,0.4,0.2,0.7,0.2c0.4,0,0.5-0.2,0.9-0.3c1.4-0.2,2.5-0.2,3.7-0.3c0.6,0,1.3-0.6,1.6,0.1
				c0.7,0,1.1-0.8,1.6-0.4c5.2-0.8,11.7-0.7,16.9-1.7c0.4-0.1,0.7-0.1,1.1-0.3c1.1-0.4,2.1-0.2,3.2-0.2c1.5-0.1,2.7-0.3,3.9-0.3
				c0.4,0,0.9,0.2,1.4,0.2c0.8-0.1,2.4-0.6,2.7-0.7c0.2,0,0.3,0.2,0.5,0.2c0.5-0.1,0.9,0,1.4-0.1c0.4,0,1.5-0.1,1.6-0.1
				c2.5-0.2,5-0.5,7.6-0.7c3.6-0.2,7.7-0.5,10.8-0.6c1.1,0,2.6,0.2,3.7,0.1c0.9-0.1,1.7-0.7,2.5-0.8c0.6-0.1,1.3,0.2,1.9,0.2
				c0.4,0,0.5-0.2,0.9-0.3c0.4,0,0.6,0.2,0.9,0c1.3-0.4,3.2-0.6,4.4-0.4c0-0.9-1.1-0.6-1.6-0.7c-0.3-0.1-0.6-0.4-0.7-0.5
				c-0.4,0-0.5,0.9-0.9,0.5c0.1-0.7-0.8-0.5-1.2-0.7c-1-0.3-0.7,0.7-1.6,0.5c-2.7-0.9-5.7-0.7-8.6-0.6c0,0,0,0.3-0.2,0.3
				c-2.8,0-6.5,0.1-9.5,0.3c-2.8,0.2-5.7,0.3-8.5,0.5c-0.7,0.1-1.3,0-2.1,0.1c-2.4,0.3-4.8,0.2-7.2,0.5c-0.8,0.1-1.6,0.3-2.3,0.4
				c-0.7,0.1-1.2,0.1-1.8,0.1c-0.8,0-1.5-0.1-2.3-0.1c-0.3,0-0.8,0.3-1.1,0.3c-0.6,0-0.7-0.2-1.2-0.2c-1.4,0.2-2.7,0.7-4.1,0.8
				c-1,0-2-0.3-3-0.3c-0.4,0-0.6,0.3-1.1,0.3c-0.4,0-0.8-0.2-1.2-0.2c-0.8,0.1-1.7,0.3-2.5,0.4c-1.6,0.2-3.3,0.6-4.8,0.6
				c-0.9,0-1.9-0.3-2.8-0.3c-2.1,0.1-4.2,1.5-6.3,0.5c-1.7,0.3-3.1,0.3-4.6,0.6c-3.5,0.6-7.8,1.6-11.1,2.1c-1.4,0.2-2.2,0.6-3,0.7
				c-1.2,0.2-2.4,0-3.5,0.3c0,0-0.2,0.5-0.2,0.5c-0.6,0.4-2,0.4-2.5,0.4c-1.7,0.3-3.3,0-4.4,0.1c-0.4,0.1-1,0.5-1.4,0.6
				c-0.7,0.2-1.3,0-1.9,0.1c-3,0.5-6.5,1.1-9.8,0.7c-0.3-0.1-1.4-0.1-1.6-0.1c-1.2,0.2-2.7,0.7-3.2,1c-0.2,0.1-0.5-0.2-0.5-0.2
				c-2.1,0.3-4.6,0.6-6.5,0.7c-0.7,0-1.4-0.1-2.1-0.1c-0.6,0-1.2,0.1-1.9,0.1c-0.8,0.1-1.8,0.2-2.6,0.2c-0.9,0-1.9-0.3-2.8-0.3
				c-0.9,0.1-1.7,0.5-2.5,0.7c-0.4,0-0.6-0.2-0.7-0.2c-0.4,0-0.8,0.3-0.9,0.3c-1,0-3.6,0-4.5,0c-0.1,0-0.5,0.3-0.9,0.3
				c-1.1-0.1-2.2-0.5-3.3-0.5c-1.6-0.1-3.4,0-4.5,0c-0.4,0-1,0.3-1.4,0.3c-1,0-1.9-0.1-2.8-0.1c-0.4,0-1,0.3-1.4,0.3
				c-0.5,0-0.7-0.4-1.2-0.4c-3.8,0-8.1,0.6-10.6,0.3c-0.6-0.1-1,0.1-1.2,0.1c-6-0.2-12.2-0.3-18.2-0.5c-1.9-0.1-3.7-0.5-5.4-0.5
				c-1,0-2.5,0.5-3.1,0.5c-0.4,0.1-0.8-0.2-1.2-0.2c-4.7,0.2-9.1,0.3-13.5,0.5c-3.1,0.1-6-0.2-9-0.2c-6.4,0-13.7-0.1-19.8,0.1
				c-1.3,0-2.6,0-3.3-0.1c-0.5,0-1.1,0-1.6,0c-6.8,0.2-13.6-0.1-20.4-0.3c-3.6-0.1-7.2,0-10.8-0.1c-4.8-0.2-9.4-0.3-14-0.5
				c-4.6-0.2-9-0.3-13.6-0.2c-0.9,0-1.7,0.2-2.7,0.1c-0.8-0.1-1.8-0.6-2.6-0.6c-0.3,0-0.8,0.1-1.2,0.2c-1.5,0.1-2.5,0-4.2,0
				c-2.1-0.1-4.1-0.4-6.3-0.6c-1.2-0.1-3.6,0-4.7-0.1c-0.3,0-0.3-0.3-0.7-0.4c-1.3-0.1-3.8-0.2-5-0.3c-0.3,0-0.3-0.3-0.7-0.4
				c-3.4-0.5-7.5-1.1-10.5-1.6c-0.6-0.1-0.8-0.5-1.4-0.6c-0.9-0.2-1.8-0.1-2.8-0.3c-0.3-0.1-0.3-0.3-0.4-0.4c-0.3-0.2-0.6,0.1-0.8,0
				c-2.9-0.7-5.1-0.8-7.5-1.5c-1-0.3-2.2-0.8-3.1-1.2c-1-0.4-2-1-3-1.5c-3.4-1.4-7.8-2.6-10.2-3.5c-1.7-0.6-4-0.9-5.8-2
				c2-0.2,4.1,0.6,6.2,0.9c2.2,0.4,4.4,0.7,6.7,0.8c0.5,0,1-0.1,1.5,0c1.9,0.1,3.5,0.4,5.2,0.6c1.2,0.2,2.3,0.4,3.5,0.6
				c1.3,0.2,2.4,0.2,3.1,0.5c3.7,0.5,7.6,1.1,11.6,1.8c4.1,0.7,8.4,1.1,12.7,1.4c0.3,0,0.3,0.3,0.5,0.3c0,0,0.5-0.1,0.8-0.1
				c1.5,0,3.2,0,4.7,0.1c4.1,0.3,8.4,0.8,12.6,0.6c0.4,0,0.8-0.4,1.2-0.4c0.4-0.1,1.2,0.1,1.7,0.1c2.1-0.1,3.8,0,5.4,0.2
				c1.3,0.2,3.8,0.3,4.7,0.4c0.3,0,0.9,0.3,1.2,0.3c0.7,0,2.4-0.3,3-0.4c0.2,0,0.3,0.3,0.5,0.3c1.4,0,2.8-0.2,4.2-0.1
				c1.8,0.2,3.2,1.1,4.9,0.2c0.5,0.4,1,0.5,1.6,0.5c0.4,0,0.8-0.2,0.9-0.2c0.4,0,0.5,0.2,0.9,0.3c1.4,0.1,3,0,4.4,0.1
				c1.2,0.2,2.3,0.7,3.5,0.8c1.2,0.1,2.5,0,3.7,0.1c1.5,0.1,2.6,0.5,3.5,0.6c0.5,0,1.2-0.2,1.6-0.2c2.7,0,5,0.8,7,0.9
				c0.6,0,1-0.3,1.6-0.2c0,0,0.3,0.4,0.5,0.5c0.9,0.3,1-0.3,1.6-0.2c0.3,0,0.4,0.2,0.9,0.3c1.9,0.1,3.9,0,5.6,0.4
				c0.6,0.1,0.9,0.5,1.6,0.5c0.8,0.1,1.5-0.2,2.4-0.2c0.8,0,1.7,0.3,2.6,0.3c4.9,0.2,10,0,13.6,0.3c0.4,0,0.9,0,1.4,0
				c1.3,0,2.7-0.3,3.5-0.5c0.4-0.1,0.6,0,0.9,0c-0.1,0,0.1,0.2,0.2,0.2c0.2,0,0.3-0.2,0.5-0.2c0.3,0,0.6,0,0.9,0
				c0.9-0.1,1.5,0,2.4,0c6.8-0.3,13.4-1.3,20-1.3c1.6,0,3.2,0.2,4.7,0.1c1.6-0.1,3.1-0.6,4.7-0.7c1.6-0.1,5.1,0.3,7.1,0.2
				c0.9,0,1.7-0.3,2.6-0.3c3.3,0,6.4,0.3,9.6,0c3.5-0.3,6.6-0.4,9.8-0.5c2.4-0.1,4.7-0.3,7-0.4c0.7,0,3,0,3.5,0
				c1.2-0.1,5.2-0.8,6-0.9c0.1,0,0.3,0.2,0.2,0.2c1.2-0.1,2.3-0.6,3.5-0.7c1.1-0.1,2.1,0.1,3.3,0c4.4-0.4,9-0.7,13.5-1.7
				c3-0.5,7.1-0.3,10.9-1.1c1.7-0.4,3.4-1.2,5.3-0.6c0.9-0.9,2.3-0.4,3.7-0.5c1.4-0.1,3.1-0.7,4.6-0.8c1.7-0.1,3.2,0.1,4.7-0.1
				c0.9-0.1,1.6-0.5,2.5-0.7c0.3-0.1,0.6,0.2,0.7,0.2c0.4,0,0.7-0.3,0.9-0.3c0.7,0,1.4,0.1,2.1,0.1c0.7,0,1.2-0.4,1.8-0.4
				c0.4,0,1.1,0.4,1.2,0.4c0.1,0,0.2-0.2,0.4-0.3c1.8-0.2,3.8-0.7,5.5-0.9c0.7-0.1,1.5,0.2,2.1,0.1c0.5-0.1,0.9-0.5,1.4-0.6
				c2.7-0.7,5.6-0.2,8.3-1.4c1.2,0.5,2.5,0.1,3.7,0c0.2,0,1.2-0.1,1.9-0.1c2.6-0.3,4.2-0.2,6-0.4c3.7-0.4,6.1-0.4,9-0.9
				c0.9-0.1,1.5-0.1,1.9-0.1c2.2-0.2,4.8-0.3,6.2-0.6c0.6-0.1,1-0.4,1.6-0.3c1.1-0.1,1.1-0.3,2.1-0.1c1.3-0.9,2.9-1.2,4.6-1.3
				c2.5,0,7.6-0.8,10.9-0.6c1.2,0.1,2.4,0.8,3.5,0.8c0.8,0,1.8-0.5,2.5-0.6c1-0.2,1.9-0.3,2.8-0.4c1.4-0.1,2.7,0.2,4,0.1
				c1-0.1,2.1-0.5,3.2-0.6c1.3-0.1,2.7,0,4.2-0.2c0.3-0.5,0.8,0.2,1.2,0.2c0.5,0,1-0.3,1.6-0.3c1.2,0,2.3-0.1,3.5-0.1
				c2.4-0.1,4.9-0.3,7.4-0.4c2.2-0.1,4.5-0.1,6.7-0.2c1.2,0,2.4,0,3.6-0.1c1.2-0.1,2.3-0.2,3.3-0.5c0.7,0,0.7,0.8,1.6,0.5
				c4.2-1.1,9.6-0.4,13-1c0.7-0.1,1.3-0.2,2.1-0.2c0.4,0,0.8,0.3,1.2,0.3c0.8-0.1,1.5-0.4,2.3-0.4c0.7,0,1.6,0.3,2.3,0.3
				c0.4,0,0.7-0.2,1.2-0.2c0.5,0,0.9,0.3,1.4,0.3c0.9,0,1.7-0.5,2.6-0.4c0.8,0,1.7,0.5,2.5,0.5c0.9,0,1.9-0.1,2.8-0.2
				c2.2-0.1,4.1-0.1,5.6-0.3c1-0.1,1.9-0.3,2.8-0.4c0.8,0,1.6,0.4,2.5,0.4c0.9,0,2.1-0.4,3.1-0.6c0.9-0.2,2.6,0.1,2.6-1.3
				c0.3-0.7-0.6-0.8-1.1-1c-0.3-0.1-0.8-0.2-1.2-0.3c-1.6-0.4-3.8-0.6-5.8-0.5c-1,0-1.9,0.3-2.8,0.4c-2,0.1-4.2-0.1-6.3-0.2
				c-2.1-0.1-4.1-0.2-5.9-0.1c-1.5,0.1-3.1,1.2-4.2,0.2c-1,0.7-3.4,0.6-5.1,0.4c-1-0.1-1.7-0.3-2.3-0.5c-5.3,0.8-11.2,0.3-16.8,0.6
				c-5.5,0.3-10.8,0.3-15.6,0.6c-4,0.2-7.8,0.4-11.5,0.5c-3.7,0.1-7.5,0.2-11.3,0.3c-1.3,0.1-2.6,0.4-3.9,0.5
				c-1.4,0.1-2.8,0.2-4.2,0.2c-0.3-0.4-0.6,0.2-1.2,0.3c-0.5,0.1-1.2-0.2-1.9-0.1c-1.2,0.1-2.5,0.3-3.3-0.1c-1.5,0.6-3.8,0.4-5.3,1
				c-0.5-0.1,0.3-0.7-0.7-0.4c-0.3,0.3-1,0.3-1.6,0.3c-0.6-0.5-1.8-0.3-2.6,0.2c-3.7-0.1-7.5,0.4-11.2,0.7c-9.8,0.8-22,2-31.9,2.3
				c-1.1,0-2.2,0.1-3.3,0.2c-6.2,0.7-12.4,1.5-18.6,1.9c-0.7,0-1.2,0.1-1.9,0.1c-1.9,0.2-4.6,0.5-5.8,0.7c-0.5,0.1-0.8-0.2-1.2-0.2
				c-2.9,0.3-5.8,0.5-8.6,0.9c-1.3,0.2-2.4,0.6-3.7,0.8c0,0-0.4-0.2-0.7-0.2c-3.6,0.6-7.1,0.9-10.4,1.5c-4.9,0.8-10.2,1.2-15.2,1.5
				c-5.1,0.3-9.9,0.6-14.1,0.9c-0.8,0.1-1.4-0.2-2.1-0.1c-1.3,0.1-2.6,0.4-4,0.4c-1.1,0-2.6-0.1-3-0.1c-0.4,0-0.8,0.3-0.9,0.3
				c-2.1,0-4.2,0-6.1,0.1c-0.4,0-1.6,0.5-1.9-0.4c3.2,0.1,6.3-0.5,8.8-0.9c2-0.3,5.2-0.3,7.2-0.4c0.6,0,1.2-0.3,1.9-0.3
				c2.8-0.2,5.6-0.3,8.2-0.5c1.1-0.1,2.4-0.1,3.2-0.7c4.1,0,8.8-0.7,13.2-1.6c0.7-0.1,2-0.2,2.5-0.4c0.1,0,0.3-0.5,0.4-0.5
				c0.5-0.1,1.1,0.2,1.6,0.1c1.8-0.1,3.1-0.3,4.6-0.3c1.1,0,2.3-0.5,3.3,0c1.4-0.3,3.2-0.8,5.1-1.1c0.6-0.1,1.8-0.4,1.8-0.4
				c0.2,0,0.3,0.2,0.5,0.2c0.9-0.2,1.6-0.5,2.5-0.7c3.9-0.6,10.7,0.4,11-2.8c0.2-1.4-0.5-2.3-1.4-2.8c-0.2-0.1-1,0-1.6-0.1
				c-0.5-0.1-1.1-0.2-1.4-0.6c-3.6,0.5-7.5,1.5-11.5,2.1c-0.4,0.1-0.9,0.3-1.4,0.3c-0.4,0-0.9-0.2-1.4-0.1c-1,0.1-2,0.6-3,0.7
				c-0.4,0-1-0.2-1.4-0.1c-0.6,0-1,0.3-1.6,0.4c-0.5,0-1-0.2-1.4-0.1c-1.6,0.1-2.8,0.7-4.2,0.1c-1.5,0.6-3.3,0.8-4.6,1
				c-0.8,0.2-0.8,0-1.4,0.1c-2.2,0.3-4.5,0.9-6.7,1.1c-0.9,0.1-1.7-0.2-2.6-0.1c-0.7,0.1-1.4,0.5-2.1,0.6c-2.8,0.6-5.6,0.8-8.4,0.9
				c-2.8,0.1-5.6,0.2-8.5,0.6c-1.1,0.1-2.3,0.5-3.5,0.7c0,0-0.4-0.2-0.7-0.2c-0.8,0.1-2,0.3-3,0.4c-7.3,0.8-14.6,1.6-22,2
				c-3.4,0.1-7.2,0.3-10.2,0.2c-2.2-0.1-5.9,0.3-8.1-0.3c-0.2-0.1-0.3,0.2-0.5,0.2c-3.5-0.1-7.4,0-9.3-0.2c-2.8-0.3-6.1-0.1-9.5-0.3
				c-3.6-0.2-7-0.9-11.2-0.9c-1.5,0-2.4,0-3.3-0.1c-1.6,0-3.4,0.2-5.1,0.1c-0.7,0-1.3-0.3-1.9-0.3c-5.3-0.2-10.7-0.4-16.1-0.4
				c-5.4-0.1-10.6,0-15.6,0c-0.6,0-1.1-0.3-1.6-0.3c-0.6,0-1,0.4-1.6,0.4c-0.3,0-0.5-0.3-0.7-0.3c-0.9,0-3.7,0.2-4.2,0.3
				c-0.2,0.1-0.3-0.3-0.5-0.3c-0.3,0-0.5,0.2-0.7,0.2c-0.4,0-0.5-0.3-0.9-0.3c-1.1,0-2.2,0.3-3.3,0.4c-0.3,0-0.5-0.3-0.7-0.3
				c-0.3,0-0.3,0.2-0.7,0.2c-1.2,0-2.3,0.2-3.5,0.1c-0.6,0-1.2-0.3-1.8-0.3c-1.3,0-2.5,0.3-3.7,0.3c-2.2,0-4.7-0.1-7.4-0.3
				c-1.5-0.1-2.9-0.5-3.9-0.6c-0.5-0.1-1.2,0.3-1.7,0.3c-0.6-0.1-1.2-0.4-1.8-0.5c-0.3-0.1-0.3,0.2-0.7,0.1c-0.1,0-0.4-0.5-0.6-0.6
				c-0.6-0.1-1.3,0-1.8-0.1c-2.3-0.2-4.7-0.1-7-0.4c-1.2-0.2-2.4-0.4-3.7-0.6c-0.3,0-0.7,0.1-0.7,0.1c-0.4-0.1-0.6-0.4-0.8-0.5
				c-0.4-0.1-1.5-0.4-1.6-0.4c-4.5-1.1-8.9-2.2-13-4.4c1.6,0,3.1,0.6,4.6,0.9c3.3,0.8,6.6,1.4,9.6,1.8c0.7,0.1,1.5,0.3,2.3,0.3
				c0.7,0,1.5-0.3,2.2-0.2c0.3,0,0.8,0.1,1.2,0.1c0.4,0.1,0.8,0.1,0.8,0.1c0.1,0,0.2,0.3,0.6,0.4c0.3,0,0.9-0.3,1.2-0.2
				c0.2,0,0.2,0.3,0.4,0.3c0.3,0.1,0.4-0.2,0.7-0.1c1.8,0.3,3.6,1.1,5.6,0.7c2.6,1.5,6.2,1.3,9.9,1.4c1,0,2.2-0.1,3.2,0
				c0.4,0,0.7,0.5,1.1,0.6c0.4,0.1,1.2-0.2,1.6-0.1c1.9,0.1,3.8,0,5.8,0c3.4,0,6.1,0.3,8.8,0.1c2.7-0.2,5.2-0.4,7.7-0.5
				c0.4,0,0.7,0.3,1.2,0.3c0.5,0,0.7-0.2,1.2-0.2c0.8,0,1.8,0.3,2.6,0.3c0.5,0,0.5-0.4,0.9-0.4c0.4-0.1,0.8,0.3,1.2,0.3
				c0.4,0,0.5,0,0.9,0c2.2,0.3,3.3-0.7,4.9-0.8c1.6-0.1,3.4,0.1,5.1,0.2c2.3,0.1,5.1,0,6.5,0.4c2.3,0.7,4.7,0,7-0.1
				c1.5-0.1,3.3,0.2,4.2,0.3c0.5,0.1,0.9-0.2,1.4-0.2c0.9,0,1.7,0.1,2.6,0.1c0.9,0,1.9-0.2,2.8,0.1c1,0,1.4-0.6,2.3-0.7
				c1,0.5,2.4-0.2,3.3-0.2c0.4,0,0.8,0.3,1.2,0.3c1.3,0,2.8-0.4,3.7-0.4c0.3,0,0.8,0.3,1.2,0.3c3.4-0.1,7.1-0.4,10.7-0.4
				c2.6,0,5,0.2,7.4,0c0,0,0.4,0.3,0.7,0.2c0.8-0.1,1.8-0.4,2.5-0.5c1.1-0.1,2.1,0.2,3-0.3c1.3-0.1,2.4,0.3,3.5,0.2
				c0.4-0.1,0.7-0.3,1.2-0.3c0.5,0,0.8,0.3,1.4,0.5c1.1,0.2,1.9,0.1,2.8-0.1c1.5-0.4,3.6-0.3,5.8-0.2c2.1,0.1,4.3,0.2,6,0.1
				c0.5,0,0.7,0,1.2,0c1,0,2.1-0.3,3-0.4c2.1-0.1,4.1,0.4,6,0.3c1.1-0.1,2.4-0.5,3.5-0.6c1.7-0.2,3.2-0.1,4.6,0
				c0.5-0.3,1.3-0.3,1.6-0.8c0.5-0.1,0.6,0.5,1.2,0.4c0,0,0.4-0.5,0.4-0.5c0.3-0.1,0.7,0,0.9,0c1.3-0.1,2.8,0.2,3.9-0.2
				c4.9-1.7,11.1-1.3,15.9-2.9c2.7-0.4,7.2-0.7,9.6-2.1c2.4,0.4,4.9-0.6,7.4-1c1.4-0.2,2.9-0.2,4.4-0.6c0.3-0.1,1.1-0.6,1.1-0.6
				c0.1,0,0.1,0.3,0.5,0.2c0.7-0.2,1.3-0.5,2-0.6c1-0.2,2.2-0.2,3.2-0.2c1.3,0,2.5,0.1,3.7,0c2.4-0.3,4.7-2,7.1-1.5
				c0.9-0.6,1.7-0.5,2.6-0.2c1.7-1,3.6-1,5.3-1.4c1-0.2,1.8-0.5,2.8-0.7c0.9-0.1,1.2,0.2,1.9-0.1c0.8-0.4,3.7-0.5,4.4-0.6
				c0.4-0.1,0.7-0.3,0.9-0.3c0.2,0,0.3,0.2,0.3,0.2c1.5-0.2,3.9-0.7,4.4-1.1c0.7-0.5,1.7-0.2,2.3-0.2c2.9-0.1,4.6-0.6,6.7-1.5
				c0.5-0.1,0.9,0,1.2,0.2c0.6,0.3,0.7-1,0.9-0.3c1-0.4,1.4-0.1,2.6-0.2c0-1,1.4-0.3,1.4-0.3c0.3,0,0.5-0.3,0.7-0.3
				c1,0,2,0.4,2.8,0.3c0.7-0.1,1.2-0.5,1.8-0.9c1.7-0.6,4.3-1,6.7-1.4C424.2,21.5,423.1,22,422.7,21.9z M233.9,52
				c8.7,0.5,18.9,0.9,28.2,1.2c-9.2,0.7-18.6,0.2-26.9-0.7C234.9,52.4,233.8,52.8,233.9,52z M302.7,51.2
				C303.6,51.8,301.6,51.9,302.7,51.2L302.7,51.2z M313.1,57l0.5,0l0,0.5l-0.5,0L313.1,57z M18.2,40.3l0.4,0l0,0.5l-0.4,0L18.2,40.3
				z"/>
			<path fill-rule="evenodd" clip-rule="evenodd" fill="#FD6D6D" d="M566.8,22.3c0.3,0.8-1.3,0.9-1.5,0.4c-0.5,0.6-1.3,0.3-1.9,0.6
				c-0.4,0.2-1.2,0.2-1.9,0.4c-0.4,0.1-0.7,0.4-1,0.4c-1.5,0.2-3.3,0-5,0.3c-0.5,0.1-1,0.1-1.4,0.2c-0.1,0-0.7-0.1-1.4-0.1
				c-1.5,0.1-2.6,0.3-3.8,0.3c-2.3,0-4.6-0.3-6.9-0.4c-0.4,0-0.8,0.2-1.2,0.2c-1.2,0-3-0.4-4.7-0.3c-0.4,0-0.8,0.5-1.2,0
				c-1.6,0.9-3.9,1.3-6.4,1.5c-2.4,0.3-5,0.3-7.1,0.3c-1,0.6-3.2,0.9-5.2,1c-0.5,0-1.1,0.3-1.4,0.2c-0.3,0-0.5-1.3-0.7-0.2
				c-1.6,0.4-3.5,0.1-5.4,0.3c-1.2,0.1-2.5,0.7-3.7,0.8c-0.7,0.1-1.4-0.2-2.1-0.2c-0.9,0-1.8,0.4-2.8,0.5c0,0-0.8,0-1.2,0
				c-0.9,0.2-2.1,0.3-3.5,0.3c-0.7,0-1.3-0.2-1.9-0.2c-0.6,0-1.3,0.5-1.9,0.5c-0.8,0.1-1.4,0-2.1,0.1c-1.9,0.2-3.8,0.7-6.3,0.7
				c-1.3,0-2.7,0-4.2,0.2c-1.8,0.2-3.6,0.1-5.4,0.2c-0.8,0-1.8,0.9-2.6,0.1c-2.4,0.6-5,0.6-7.7,0.9c-0.9,0.1-1.8,0.3-2.8,0.4
				c-0.2,0-0.4-0.3-0.7-0.2c-1.8,0.4-5.1,0.8-7.2,1.4c-1.8,0.5-3.4,0.8-5.1,0.1c-1.9,0.6-4.6,0.6-6.3,0.9c-0.7,0.1-1.2,0.4-1.9,0.1
				c-0.8,0.3-1.6,0.5-2.3,0.9c-3.5-0.2-6.8,0.4-10.2,1c-1.5,0.3-3.1,0.7-4.6,0.8c-1,0-2-0.3-3.1-0.3c-2,0-4,0.4-6,0.7
				c-1.4,0.2-2.7,0.5-4.2,0.6c-0.5,0-1.4-0.5-2.1-0.1c-0.1,0-0.1,0.5-0.2,0.5c-0.9,0.3-2.6,0.3-3.7,0.5c-1.6,0.3-3.1,0.7-4.6,0.8
				c-1.3,0.1-2.7-0.2-4.4,0.3c-0.4,0.1-0.8,0.5-1.4,0.6c-0.7,0.1-1.5-0.4-2.1,0.2c-1.1-0.7-3.1-0.3-3.8-1.4
				c-0.5-1.6,0.3-2.3-0.3-3.4c1-0.7,2.3-1.1,3.5-0.5c1.9-0.9,4-0.5,6-0.7c2.4-0.3,4.4-0.7,7.2-1c0.4,0,0.4-0.3,0.7-0.3
				c0.2,0,0.2,0.2,0.5,0.2c2.4-0.3,5.8-1.1,9-1.4c0.9-0.1,1.9-0.2,2.8-0.2c0.7,0,1.6,0.1,2.3,0.1c2.8-0.3,5.9-0.6,8.6-0.9
				c0.2,0,0.2,0.3,0.5,0.2c0.2,0,0.4-0.3,1.1-0.3c0.9,0,1.9,0,3.5-0.3c0.2,0,0.5-0.3,0.9-0.3c0.3,0,0.7,0.2,0.7,0.2
				c0.7-0.1,1.2-0.6,1.8-0.6c0.7-0.1,1.2,0.2,1.9,0.1c0.9-0.1,1.7-0.5,2.5-0.6c0.9-0.1,1.9,0.1,2.8,0.1c0.3,0,0.6,0,0.9-0.1
				c0,0,0.1-0.4,0.2-0.3c0.3,0.3,3.9-0.2,5.6-0.6c0.4-0.1,0.7-0.5,1.1-0.6c0.5-0.1,1.1-0.1,1.6-0.1c0.1,0,0.2-0.3,0.5-0.3
				c0.5,0.1,2-0.3,3-0.4c1.9-0.2,3.9-0.4,5.9-0.6c0.9-0.1,1.7-0.1,2.6-0.1c0.7,0,1.4,0.2,2.1,0.1c1.1-0.1,2.3-0.6,3.5-0.7
				c1.2-0.1,2.5,0.1,3.8,0c2.1-0.1,4.2-0.6,6.3-0.7c0.1,0,0.6,0.3,1,0.2c0.3-0.1,0.4-0.3,0.7-0.3c1.2,0,2.5,0.4,3.8,0.3
				c1.7-0.1,3.3-0.3,5.2-0.2c0.5,0,1.2-0.5,1.7,0.2c1.9-0.6,3.9-0.8,6.3-0.9c1.2-0.1,5-0.7,6.8-0.6c0.5,0,1,0,1.4,0
				c1.6-0.1,3.1-0.8,4.5-0.1c1.1-0.5,4.2-0.9,5.2,0c2.3-0.9,5.3-0.2,7.8-1.2c2.4,0.1,5.5-0.4,9-0.2c2.4,0.1,4.7,0.8,6.7-0.4
				c1.2,0,1.3-0.2,2.9-0.2c0.9-0.3,1.7-0.9,2.6-0.4c0.7-0.4,1.6-0.4,2.6-0.4c1,0.1,2,0.2,3.2,0.1c0.6-0.1,1.4-0.4,2.2-0.4
				c0.7,0,1.6,0.3,2.4,0.3c0.7,0,1.4-0.2,1.9-0.2c1.8,0.1,3.2,1,4.3-0.1C562.9,22,565.4,21.7,566.8,22.3z"/>
			<path fill-rule="evenodd" clip-rule="evenodd" fill="#FD6D6D" d="M545.4,54.1c-0.5-0.1-0.4-0.8-1.1-0.7c-0.6,0-1.1-0.1-1.4,0.2
				c-0.7-0.7-1.7-0.2-2.3-0.3c-1.2-0.1-2.5-0.2-3.6-0.3c-0.9-0.1-1.6,0-2.3,0c-0.8,0-1.6-0.5-2.3-0.5c-0.8-0.1-1.5,0.2-2.3,0.2
				c-2.1-0.1-5.2-0.3-8.2-0.2c-0.1,0-0.3,0.2,0,0.2c0.7,0.1,1.8-0.3,1.8,0.5c-0.7,0.3-1.6-0.3-2.1-0.2c-0.4,0-0.8,0.5-0.9,0.2
				c-0.7,0-1.2,0-1.1,0.7c0.8-0.4,1.4,0.4,2.1,0.5c0.5,0.1,1.2-0.3,1.8-0.2c0.9,0.1,1.9-0.2,2.5,0.5c-0.5,0.1-1.5-0.3-1.6,0.2
				c1.4,0.5,4.3,0.1,5.9,0.2c1.2,0.1,1.9,0.3,2.1-0.2c1.7,1.1,4.7,0.3,6.4,0.8c0.4,0,0.2-0.6,0.7-0.5c0.5-0.1-0.1,1.1,0.7,0.7
				c2.4-0.3,5.4,0.5,8-0.1c0.8,0.4,2.1,1.2,2.9,0.4c-0.4-0.1-1.4,0.3-1.1-0.5c1.5,0.2,3.3,0,5,0c-0.2-1.5-2.9-0.5-4.3-0.9
				c-0.4-0.2-0.5-0.8-0.9-1C548.4,54.2,546.5,53,545.4,54.1z M526.7,54l0.5,0l0,0.5l-0.5,0L526.7,54z M544.7,55.2
				c-0.1,0.4-1.7,0.4-1.8,0C543,54.1,544.4,55.1,544.7,55.2z"/>
		</g>
	</g>
</g>
</svg>
