<?xml version="1.0" encoding="utf-8"?>
<!-- Generator: Adobe Illustrator 18.1.1, SVG Export Plug-In . SVG Version: 6.00 Build 0)  -->
<svg version="1.1" id="Layer_1" xmlns="http://www.w3.org/2000/svg" xmlns:xlink="http://www.w3.org/1999/xlink" x="0px" y="0px"
	 viewBox="0 0 647.1 98.9" enable-background="new 0 0 647.1 98.9" xml:space="preserve">
<g>
	<path stroke="#231F20" d="M10.4,26.9c-2.3-6.3-3.9-9-3.9-9s2.2-1.3,8.8-1.3c3.5,0,7,2.2,7.8,6.6c2,12.1,8.8,38.1,13.6,53.8h0.5
		c5.3-12.6,11.8-30.1,11.8-34.7c0-8.5-5.6-24.4-5.6-24.4s0.9-1.3,7-1.3c3.3,0,7.1,2.2,7.8,6.6c1.7,12.1,7.2,38.1,11.6,53.8h0.5
		c9.3-24.4,19.4-37.7,19.4-50.2c0-5.2-3.7-8.5-3.7-8.5v-0.8c0,0,3.4-1,4.9-1c5.2,0,7.8,1.5,7.8,5.9c0,11.2-20.1,44.7-27,67.8
		c-0.1,0-12.2-0.4-14.6-12.1c-1.2-6.1-2.8-14.5-4.8-24h-0.5c0,0-0.3,2.3-1.1,4.4l-9,21.8c-1.9,4.7-3.6,10-3.6,10s-11.4,0-14.2-12.2
		C20.9,65.2,14.6,38.1,10.4,26.9z"/>
	<path stroke="#231F20" d="M142.7,15.8c21.7,0,32.2,15.1,32.2,31.7c0,21.2-13.7,42.7-36.9,42.7c-21.6,0-32.2-15.6-32.2-33.3
		C105.8,36.3,119,15.8,142.7,15.8z M138.8,84.7c14.4,0,23.6-18.3,23.6-35.3c0-14.3-6.3-27.9-20.6-27.9c-14.7,0-23.5,17.4-23.5,33.7
		C118.3,70.4,124.7,84.7,138.8,84.7z"/>
	<path stroke="#231F20" d="M190.8,60.5c0.7-10.1,1.8-32.5,1.8-34.9c0-6.6-0.2-8.5-0.2-8.5s3.8,0.2,7.8,0.2h11.5
		c16.4,0,24.4,7.8,24.4,17.7c0,18.4-18.2,21.1-18.2,21.1v0.5c0,0,15.4,25.6,24.3,30.5v0.8c0,0-4.5,1.3-9.7,1.3
		c-13.1,0-22.1-27.6-27.8-32.1l-2.4-0.5c-0.1,2.4-0.7,14.9-1.4,26.1c-0.3,5.5-3.3,6.9-6.7,6.9c-2,0-4.2-0.6-6.5-1
		C187.5,88.8,189.1,85.9,190.8,60.5z M206.8,51.6c9.3,0,18-2.4,18-14.8c0-7.8-4.4-14.1-16.7-14.1h-3.3c-0.9,8.6-1.6,21.2-2.2,28.8
		C204,51.5,205.4,51.6,206.8,51.6z"/>
	<path stroke="#231F20" d="M257.2,24.4c0-5.5-0.2-7.1-0.2-7.1s2.8-0.9,4.4-0.9c4.3,0,8.2,2.2,8.2,6c0,4.4-1.4,17-2.1,28.1h0.4
		c22.6-21.5,27.8-27.3,29.2-33.4c0,0,2.1-0.1,3.1-0.1c4,0,5.6,0.8,5.6,2.7c0,4.4-15.9,18.1-28.3,28.9V49c0,0,19.5,32.4,29.4,38.4
		v0.7c0,0-4,1.3-9.7,1.3c-13.8,0-25.5-34.1-29.3-35.1l-0.7-0.2l-0.6,10.3c-0.3,5.7-0.6,11.9-1.1,18.5c-0.5,5.5-3.3,6.9-6.6,6.9
		c-2,0-4.1-0.6-6.5-1C254.2,85.7,257.2,37.6,257.2,24.4z"/>
	<path stroke="#231F20" d="M345.1,51.2c0.7-10.4,1-20.4,1-28.5c0-4.7-0.1-5.5-0.1-5.5c1.9-0.6,3.8-0.9,5.5-0.9
		c4.9,0,6.9,2.3,6.9,7.9c0,4.6-1.4,15.8-2.1,24.3c-0.9,10.1-1.5,22.2-1.5,30.4c0,3.3,0.1,6.4,0.2,9.7c-2.3,0.4-4.3,1-6.3,1
		c-3.3,0-5.9-1.8-5.9-4.8C342.8,82.5,343.6,73.9,345.1,51.2z"/>
	<path stroke="#231F20" d="M374.4,73.8h0.7c0,0,5.5,10.5,18.4,10.5c9.7,0,13.5-6.1,13.5-11.4c0-16.6-32.2-14.5-32.2-35.7
		c0-13.8,13.1-21.3,24.9-21.3c6,0,19.7,1.1,19.7,7.3c0,2.1-1.7,6-4.5,7.9h-0.7c0,0-5.8-9.7-15.7-9.7c-6.9,0-12.4,5.2-12.4,11.6
		c0,16.2,32.2,13.2,32.2,35.1c0,14.7-13.4,22.2-26.1,22.2c-7.9,0-21.9-3-21.9-9.3C370.1,78.7,372.1,75.7,374.4,73.8z"/>
	<path stroke="#231F20" d="M459.8,60.5c0.7-10.8,1.7-23.2,1.7-36.1c0-6.4-0.2-7-0.2-7h17.9c14.8,0,21.4-1,21.4-1
		c-0.9,5-1.5,8.5-8.5,8.5c-11,0-18.3-1.6-18.3-1.6c-0.3,4.3-1.2,15.4-1.9,25.7h14.9c4,0,5.7-1,5.7-1c-0.4,4.8-1.3,7.5-6.3,7.5
		c-5.1,0-14.8-0.6-14.8-0.6l-0.6,9.6c-0.4,5.7-0.6,11.9-1.1,18.5c-0.5,5.5-3.3,6.9-6.6,6.9c-2,0-4.1-0.6-6.5-1
		C456.5,88.8,458.1,85.9,459.8,60.5z"/>
	<path stroke="#231F20" d="M511.4,21.4c0-3.2-0.1-4.1-0.1-4.1s3.3-0.9,6-0.9c3.9,0,6.6,1.9,6.6,7.7c0,5-2.8,31.5-2.8,38.9
		c0,12.9,5.7,21.3,16.6,21.3c10.8,0,16.9-8.8,19-25.7c1.3-10.6,1.8-29.2,1.8-41.2c0,0,3.2-0.9,5.2-0.9c2.5,0,3.2,1.3,3.2,4.4
		c0,4.6-2,27-3.1,36.4c-2.3,21.8-10,33.2-28.3,33.2c-15.5,0-26.2-8-26.2-29.7C509.5,52.7,511.4,34.6,511.4,21.4z"/>
	<path stroke="#231F20" d="M584.4,60.5c0.7-10.8,1.6-25.2,1.6-36.1c0-5.4-0.2-7-0.2-7c1.2-0.4,3-0.8,5-0.8c2.1,0,3.3,0.2,4.1,1.7
		c2.1,4.3,5.8,9.1,9.4,14.2l17.1,24.7c4.4,6.4,8,11.4,8.8,13.6l0.4-0.4c0.3-15.8,2.1-31.6,2.1-48c0-4-0.2-5-0.2-5s1.6-0.9,3.6-0.9
		c3.5,0,4.1,1.5,4.1,4.2c0,8.3-4.5,47-4.5,64.6c0,1.5,0.1,2.9,0.2,3.7c0,0-2,0.6-4.1,0.6c-1.4,0-3.3-0.7-4.4-2.8
		c-2.1-4-5.6-9.1-9.6-14.7l-17.4-25c-4.5-6.4-7.9-11.2-8.2-13.4l-0.4,0.4c-1.1,15.9-1.5,32-2.8,48.8c-0.4,5.5-0.6,6.9-4,6.9
		c-2,0-4.3-1-4.3-1S582.7,85.9,584.4,60.5z"/>
</g>
</svg>
