<?xml version="1.0" encoding="utf-8"?>
<!-- Generator: Adobe Illustrator 18.1.1, SVG Export Plug-In . SVG Version: 6.00 Build 0)  -->
<svg version="1.1" id="Layer_1" xmlns="http://www.w3.org/2000/svg" xmlns:xlink="http://www.w3.org/1999/xlink" x="0px" y="0px"
	 viewBox="0 236 800 337" enable-background="new 0 236 800 337" xml:space="preserve">
<g>
	<path fill="#020202" stroke="#070707" stroke-width="2" stroke-miterlimit="10" d="M127.8,352c2.3,0.4,4.4,1,6,2.2
		c1.2,8.1-0.1,16.9-0.8,26c-2.2,26-1.3,56.2-5.8,80.4c-1,1.3-2.2,1.2-3.1,1.3c-1.2,0.1-2.3,0.4-3.6,0c-3.1-0.8-4.1-10.2-4.8-14.5
		c-3.5-16.2-6-37-8.9-51.4c-2.3,12.8-2.6,28.6-4.3,42.9c-0.8,6.1-0.5,11.4-2.6,18.5c-2.3,1.3-6.2,4.8-8.8,1.4
		C88.9,446,75,369.8,74.9,368.8c-0.4-4.7-1.6-14,1.2-16.4c1.4-2.3,3.9-0.9,5.3,1.9c5.6,18.5,8.4,40.8,12.7,67.3
		c1.2-14.2,2.1-19.3,3-29.2c1-12.4,4.3-33,6.9-35.7c1.4-1.6,2.1-2.7,3.9-1.8c2.7,1.4,3.5,9.8,4.5,14.1c3.5,15.9,5.7,29.7,8.4,49.3
		c1.6-17.8,3.4-44.6,4.7-61.7C125.4,355.6,126.8,352.9,127.8,352z"/>
	<path fill="#020202" stroke="#070707" stroke-width="2" stroke-miterlimit="10" d="M185.6,398.8c0.1,6.7,0,13.3-0.5,19.9
		c-0.3,5.8-1.2,12.3-1.3,19.4c-0.3,6.9-1.2,13.6-3.6,17.3c-1.8,2.7-5.8,6.1-8.9,6.5c-6.9,0.8-11.9-3-14.5-7.1c-1.4-2.3-3-4.7-3.2-8
		c-0.3-2.2-0.5-6-0.4-8c0.8-10.2,0.4-22.9,1-35.7c0.4-6,0-12.3,0-18.2c0-8.9-0.1-17.5,2.7-22.7c1.6-2.7,4.8-6.1,8-6.7
		c9-1.6,14.1,1.3,17.8,6.7c0.8,1.2,2.6,11,2.6,14.1C185.2,382.8,185.6,391.7,185.6,398.8z M174.5,367c-0.9-1.4-4.1-3.5-6.9-2.2
		c-6.9,2.7-5.7,12.1-5.4,22.6c0.5,12.9-0.1,27.9-0.1,39.9c0,11.4-3.6,24.2,7.9,24.3c5.8,0,3.8-13.6,4.8-18.9
		c2.1-10.6,2.3-52.1,1.9-56.9C176.4,373,176,370.5,174.5,367z"/>
	<path fill="#020202" stroke="#070707" stroke-width="2" stroke-miterlimit="10" d="M234.1,397.8c3.4,5.2,7.6,10.6,9,18.4
		c1.6,8.8,1.8,21,1.6,31c0,5.2,0.4,10.7-0.3,11.4c-1.6,3.1-6.2,5.6-8.8,0c-1.3-3.2,0-4.5-1.3-25.3c0-11.9-1.6-20.8-6.6-27.4
		c-2.1-3-4.3-5.8-9.2-5.2c0.3,15.8-0.8,33.9-0.8,48.9c0,12.8-7.9,16-11.1,9.6c-0.5-21.8,1.3-43.6,1.3-64.3c0-13.7-2.3-39.9,2.1-38.9
		c1.8-2.5,27.7-2.7,34.5,8.1c5.8,9.4,3.5,21.2-2.6,27C239.9,394.2,236,396.1,234.1,397.8z M218.1,386.7c0,2.1,14.1,1.4,17.3-2.1
		c1.9-2.1,3.8-11.8,1.4-14.5c-3-4.1-20.2-7.2-19.4-5.3C216.8,365.5,217.5,380.8,218.1,386.7z"/>
	<path fill="#020202" stroke="#070707" stroke-width="2" stroke-miterlimit="10" d="M285,397.8c7.6,13.4,8.9,17.3,18,41.9
		c0.5,1.4,5.4,12.5,4.1,17.8c-0.8,3.1-5.4,3.9-7.2,2.5c-3.5-2.2-3.5-4.1-4.4-7c-4.1-14.7-8.9-28.2-14.6-42
		c-2.7,16.4-1.6,30.5-1.6,49.9c0,3.5-9.6,3.5-9.6,0.5c-1-28.7,3.6-66.9,3-94.6c-0.1-2.6-0.3-4.8,0.3-6.7c0.9-3.4,4.5-6.5,8-3.4
		c0.8,7.1,0.5,16.7,1,24.2c5.7-4.3,8.5-19.1,14.5-24.2c1.4-1.2,6.2-3,7.1,0c1,2.7-2.3,8.9-3.2,10.5C294,380.1,292.5,384.5,285,397.8
		z"/>
	<path fill="#020202" stroke="#070707" stroke-width="2" stroke-miterlimit="10" d="M389.5,457.9c0,3.6-1.4,3.4-1.8,3.5
		c-2.6,1.3-4.7,0.3-5.4-0.5c-3.2-3.2-3-9.2-2.7-14.7c0.3-21.6,1.3-52.2,1.3-72.8c0.1-7.7-1.6-14.6,3.9-16.8c3.1-1.4,4.5,2.5,4.9,5.8
		c1.6,9.2,0.5,19.9,0.9,28.4C391.5,412.1,388.3,436.4,389.5,457.9z"/>
	<path fill="#020202" stroke="#070707" stroke-width="2" stroke-miterlimit="10" d="M413,445.7c1.9-1.6,3.5-3.4,6.7-3.4
		c3.9,0,6.5,12.1,9.2,8.9c2.5-6.2,0.4-14-0.5-21.2c-1-7-8.4-48.2-11-55.7c-3.2-9.8,0.3-20.4,9.6-21.8c7.9-1,12.7,3,14.9,9.2
		c0.8,2.1,1.6,4.1,0.3,5.7c-1.9,1-3,2.1-4.3,1.6c-6.9-2.2-3.9-8.8-8.4-4.9c-2.6,2.2,0,14.7,0.8,17.6c1.9,8.8,5.2,19,6.6,30.5
		c1.4,11,3.4,22.7,4.1,32.6c0.4,4.4-0.1,8.5-1.3,11c-2.6,5.7-10.5,8.5-17.3,5.3c-2.2-1-7.7-6-8.9-9.3
		C412.7,449.7,412.1,447.7,413,445.7z"/>
	<path fill="#020202" stroke="#070707" stroke-width="2" stroke-miterlimit="10" d="M545.9,358.5c0.9,7.5-14.9,6.7-20.3,7.7
		c-0.8,5.7,0.4,11,0.9,16.4c2.3,0,7,0.1,8.1,3.2c0.5,6-4.9,5.6-7,6.2c-0.3,15.3,3,33,3.6,49.5c0.3,6.9,2.2,16.9-1,18.9
		c-11.4,6.7-9.9-6.2-14.5-85.6c-0.5-8.4-3.5-16.3,2.5-18.1c3.2-0.1,5.4,0.4,8.3-0.1C532.9,355.4,545.2,352.4,545.9,358.5z"/>
	<path fill="#020202" stroke="#070707" stroke-width="2" stroke-miterlimit="10" d="M566.4,354c1.6-2.5,8-2.2,8,1.3
		c1.2,14,1.4,30.8,1.4,48c0,15.1-3.4,34.1,2.5,44.9c1.4,2.7,3.8,3.4,5.6,2.7c6.5-2.6,5.8-15.9,5.8-31.2c0-7-1.3-60.1,1.8-65.5
		c1.6-2.7,8.4,0.4,8.9,1.9c1,6.9,1,16.8,1,26.9c0,19,1.2,43.4-1.9,59.5c-1.2,6.1-2.7,11.9-6.1,15.8c-8.3,9.2-21.3,3.6-25.5-6.9
		c-1.2-1.6-1.6-3.9-1.9-4.9c-0.8-2.5-1-6.9-1.2-9.9c-0.8-8.4-0.4-17.8,0-27.3c0.1-6.7,0.4-13.7,0.3-20.4
		c-0.3-11.1,1.2-20.3,0.4-30.8C565.6,356.7,565.7,355.1,566.4,354z"/>
	<path fill="#020202" stroke="#070707" stroke-width="2" stroke-miterlimit="10" d="M634.9,356.9c2.2,5.7,10.7,49.3,11.9,57
		l-1.4-48.1c-0.1-5.6,1.4-11.6,5.4-10.2c4.7-0.9,4.5,4.1,4.5,7.6c-0.3,10.2,1,23.3,0.3,35.2c-1.3,21.6,0.4,43.7-2.7,61.9
		c-0.8,3.6-6.7,3.4-7.9-5.8c-0.3-2.5-2.2-13.3-2.2-16.7c0-4.3-7.7-38.1-7.9-38.6c-0.8-2.7-0.4-4.5-1.9-7.9c0,2.6-0.4,45.8-0.4,49
		c0,8.9,0.9,21.8-6.6,21.5c-4.8-0.3-3.4-7.9-3.2-14c0.1-4.1,0-8.4,0-11.6c-0.4-17.2,1.2-41.5,1.2-58.4c0-7.6-0.3-15.8,1.4-22.6
		C626.9,352.7,631.3,351.4,634.9,356.9z"/>
	<path fill="#020202" stroke="#070707" stroke-width="2" stroke-miterlimit="10" d="M687.3,378.6c0-6,0.1-11.1,0-16.2
		c0-1.9,0.9-3.1,1.9-4.4s2.2-2.2,3.8-2.6c0.4,0,1-0.1,1.4-0.1c3.4,0.3,5.3,2.5,4.9,6.2c0,1.3-0.1,2.6-0.1,3.9
		c-0.1,6.2,0,12.7-0.3,19c-0.3,8.9,0,17.8,0.1,26.6c0,2.3,0.4,4.8,0.5,7.1c0.4,3,0.8,6,1.2,8.9c0.3,2.6,0.8,5.2,1.2,7.7
		c0.4,1.6,0.3,3.2-0.1,4.9c-0.4,2.6-2.6,4.8-5.2,5.2c-2.7,0.4-5.2-0.8-6.7-3.1c-0.5-0.8-0.9-1.6-0.9-2.6c-0.3-1.3-0.3-2.6-0.3-3.9
		c0.4-4.1-0.3-8-0.8-12.1C687.8,419,686.9,384.2,687.3,378.6z M696.4,450.8c0.5,0.1,1.8,0.3,2.5,0.8c3.5,1.4,3.9,6.1,0.8,8.3
		c-1.6,1-3.5,1.8-5.6,1.8c-3,0.1-5.6-2.2-5.7-5.2c-0.1-0.8,0.1-1.4,0.4-1.9C690.6,451.8,693.2,451,696.4,450.8z"/>
</g>
<g>
	<g>
		<path fill="#050505" d="M52.5,330.5c-9.5-6.9-18.5-14.6-26.9-22.8c-1.5-1.5-3.8,0.9-2.3,2.3c8.7,8.4,17.9,16.2,27.6,23.3
			C52.6,334.6,54.3,331.8,52.5,330.5L52.5,330.5z"/>
	</g>
</g>
<g>
	<g>
		<path fill="#050505" d="M71.6,320c-14.2-9.9-24.7-24.2-29.8-40.8c-1.2-4.1-7.6-2.3-6.4,1.8c5.7,18.3,17.2,33.8,32.9,44.7
			C71.7,328.2,75,322.5,71.6,320L71.6,320z"/>
	</g>
</g>
<g>
	<g>
		<path fill="#050505" d="M89.7,312.3c-6.9-10.7-11.8-22.5-14.7-35c-0.4-2.1-3.6-1.2-3.2,0.9c2.8,12.7,7.9,24.8,15,35.7
			C87.9,315.7,90.8,314,89.7,312.3L89.7,312.3z"/>
	</g>
</g>
<g>
	<g>
		<path fill="#050505" d="M122.4,306.1c-7.8-20.6-18-40.1-30.6-58.2c-2.4-3.4-8.1-0.2-5.7,3.3c12.3,17.6,22.4,36.6,29.9,56.7
			C117.5,311.7,123.9,310.1,122.4,306.1L122.4,306.1z"/>
	</g>
</g>
<g>
	<g>
		<path fill="#050505" d="M140.1,308c1.1-10.7,0.3-21.5-2.2-32c-0.5-2.1-3.6-1.2-3.2,0.9c2.4,10.3,3.2,20.6,2.1,31.1
			C136.6,310.2,139.9,310.2,140.1,308L140.1,308z"/>
	</g>
</g>
<g>
	<g>
		<path fill="#050505" d="M169.7,308.1c-0.4-17.2-0.3-34.4,0.3-51.7c0.2-4.3-6.4-4.3-6.6,0c-0.8,17.2-0.9,34.4-0.3,51.7
			C163.2,312.3,169.8,312.3,169.7,308.1L169.7,308.1z"/>
	</g>
</g>
<g>
	<g>
		<path fill="#050505" d="M205.2,308.6c4.4-14.9,10.9-28.8,19.4-41.9c2.3-3.5-3.4-6.8-5.7-3.3c-8.8,13.4-15.6,27.9-20.1,43.4
			C197.6,311.1,204,312.7,205.2,308.6L205.2,308.6z"/>
	</g>
</g>
<g>
	<g>
		<path fill="#050505" d="M237,313.4c22.1-18.7,40.1-42,52.6-68.2c1.9-3.8-3.8-7.1-5.7-3.3c-12.3,25.8-29.8,48.4-51.5,66.9
			C229.1,311.5,233.7,316.1,237,313.4L237,313.4z"/>
	</g>
</g>
<g>
	<g>
		<path fill="#050505" d="M293.8,312.4c3.5-11.2,7.9-22,13.2-32.6c1-1.9-1.9-3.5-2.8-1.6c-5.4,10.7-9.9,21.9-13.5,33.3
			C290,313.5,293.2,314.3,293.8,312.4L293.8,312.4z"/>
	</g>
</g>
<g>
	<g>
		<path fill="#050505" d="M330.9,315.6c7.9-12.9,15.3-26.3,22.2-39.8c2-3.7-3.7-7.1-5.7-3.3c-6.9,13.6-14.4,26.9-22.2,39.8
			C323,315.9,328.7,319.2,330.9,315.6L330.9,315.6z"/>
	</g>
</g>
<g>
	<g>
		<path fill="#050505" d="M377.8,312.9c8.8-21.3,13.8-43.7,15-66.6c0.2-4.3-6.4-4.2-6.6,0c-1.1,22.4-6.1,44.2-14.8,64.9
			C369.8,315.1,376.2,316.8,377.8,312.9L377.8,312.9z"/>
	</g>
</g>
<g>
	<g>
		<path fill="#050505" d="M41.5,346.2c-2.7,0-27.7,2-27.7-1.8c0-4.3-6.6-4.3-6.6,0c0.1,5.3,4.4,7.7,9.2,8.4c8.1,1.2,17,0,25.1-0.1
			C45.8,352.7,45.8,346.1,41.5,346.2L41.5,346.2z"/>
	</g>
</g>
<g>
	<g>
		<path fill="#050505" d="M744.1,447.5c18,6.2,38.3-1,48.7-16.8c2.3-3.5-3.4-6.8-5.7-3.3c-8.8,13.5-26.1,19.1-41.2,13.8
			C741.8,439.7,740.2,446.1,744.1,447.5L744.1,447.5z"/>
	</g>
</g>
<g>
	<g>
		<path fill="#050505" d="M737,466.9c16.8,0.4,33.6,1.6,50.3,3.4c2.1,0.2,2.1-3.1,0-3.3c-16.8-1.9-33.5-3-50.3-3.4
			C734.9,463.5,734.9,466.8,737,466.9L737,466.9z"/>
	</g>
</g>
<g>
	<g>
		<path fill="#050505" d="M720.9,476.3c16.2,2.8,18.4,21.5,19.3,35c0.3,4.2,6.9,4.3,6.6,0c-1.1-16.3-4.7-37.9-24.1-41.2
			C718.6,469.3,716.7,475.6,720.9,476.3L720.9,476.3z"/>
	</g>
</g>
<g>
	<g>
		<path fill="#050505" d="M703.5,488.2c-0.1,9.2-0.1,18.5-0.2,27.7c0,2.1,3.3,2.1,3.3,0c0.1-9.2,0.1-18.5,0.2-27.7
			C706.8,486.1,703.5,486.1,703.5,488.2L703.5,488.2z"/>
	</g>
</g>
<g>
	<g>
		<path fill="#050505" d="M675.5,492.9c3.6,23.2-8.8,44.6-26.6,58.5c-3.3,2.6,1.3,7.2,4.6,4.6c19.9-15.6,32.2-39.3,28.3-64.9
			C681.2,487,674.8,488.7,675.5,492.9L675.5,492.9z"/>
	</g>
</g>
<g>
	<g>
		<path fill="#050505" d="M641.8,505.8c-0.7,9.8-3.2,19-8.1,27.5c-1.1,1.9,1.8,3.5,2.8,1.6c5.2-9,7.9-18.9,8.5-29.2
			C645.2,503.7,642,503.7,641.8,505.8L641.8,505.8z"/>
	</g>
</g>
<g>
	<g>
		<path fill="#050505" d="M606,506.7c4.4,26-23.6,44-43.7,52.9c-3.8,1.8-0.5,7.3,3.3,5.7c23.5-10.5,51.6-31.1,46.7-60.4
			C611.6,500.8,605.2,502.5,606,506.7L606,506.7z"/>
	</g>
</g>
<g>
	<g>
		<path fill="#050505" d="M565.9,511.3c-2.5,10.2-12.4,16.4-21.8,19.6c-3.9,1.4-2.3,7.8,1.8,6.4c11.5-4.1,23.2-11.7,26.4-24.2
			C573.2,509,567,507.2,565.9,511.3L565.9,511.3z"/>
	</g>
</g>
</svg>
